<svg id="Layer_1" data-name="Layer 1" xmlns="http://www.w3.org/2000/svg" viewBox="0 0 182.89 183.48"><defs><style>.cls-1{fill:#00b6e7;}.cls-2{fill:#fff;}</style></defs><rect width="183.42" height="183.42"/><polygon class="cls-1" points="139.68 79.42 133.89 79.42 133.89 73.72 133.79 73.72 129.49 73.72 129.05 73.72 129.05 79.42 123.26 79.42 123.26 83.98 129.05 83.98 129.05 89.67 133.89 89.67 133.89 83.98 139.68 83.98 139.68 79.42"/><path class="cls-2" d="M64.41,100.15a10.84,10.84,0,0,1-4.71,1A8.43,8.43,0,0,1,51,92.58c0-5.07,3.73-8.4,8.76-8.4A11.3,11.3,0,0,1,66,85.91l2.21-4a14.73,14.73,0,0,0-8.73-2.43c-8.05,0-13.74,5.73-13.74,13.08s5.69,13,13.63,13a15.28,15.28,0,0,0,9.71-3v-10H64.41Z"/><path class="cls-2" d="M83.14,93.62H79.37V83.93h3.8c3.4,0,5.71,1.82,5.71,4.95,0,2.88-2.28,4.74-5.74,4.74m11.07-4.74c0-5.85-4.25-9.47-10.63-9.47H74.23v26.22h5.14v-7.5h4.51l5.11,7.5h6.08l-6-8.65a8.57,8.57,0,0,0,5.14-8.1"/><rect class="cls-2" x="99.56" y="79.41" width="5.14" height="26.21"/><path class="cls-2" d="M133.86,92.74h0V92h-4.8v.79s-.05,1.91-.13,2.54c-.49,3.66-4,5.8-8.42,5.8h-4.74V84h4.76V79.41h-9.9v26.22h10.1c7.26,0,12.56-4,13.13-10.35.06-.64,0-2.54,0-2.54"/></svg>