<svg id="Layer_1" data-name="Layer 1" xmlns="http://www.w3.org/2000/svg" viewBox="0 0 182.89 183.48"><defs><style>.cls-1{fill:#959595;}.cls-2{fill:#00b6e7;}.cls-3{fill:#fff;}</style></defs><rect class="cls-1" x="-3.96" y="-7.97" width="191.24" height="200.98"/><polygon class="cls-2" points="139.62 80.22 133.83 80.22 133.83 74.53 133.74 74.53 129.44 74.53 129 74.53 129 80.22 123.2 80.22 123.2 84.78 129 84.78 129 90.48 133.83 90.48 133.83 84.78 139.62 84.78 139.62 80.22"/><path class="cls-3" d="M64.35,101a10.81,10.81,0,0,1-4.71,1,8.43,8.43,0,0,1-8.73-8.55c0-5.07,3.73-8.41,8.77-8.41A11.26,11.26,0,0,1,66,86.72l2.21-4a14.73,14.73,0,0,0-8.73-2.43c-8,0-13.73,5.72-13.73,13.08s5.69,13,13.62,13a15.31,15.31,0,0,0,9.71-3v-10H64.35Z"/><path class="cls-3" d="M83.08,94.43H79.32v-9.7h3.8c3.39,0,5.7,1.83,5.7,5,0,2.87-2.27,4.74-5.74,4.74m11.08-4.74c0-5.85-4.26-9.47-10.63-9.47H74.17v26.21h5.15V98.94h4.51l5.11,7.49H95l-6-8.65a8.56,8.56,0,0,0,5.15-8.09"/><rect class="cls-3" x="99.51" y="80.22" width="5.14" height="26.21"/><path class="cls-3" d="M133.81,93.55h0v-.79H129v.79s0,1.91-.14,2.53c-.49,3.67-4,5.81-8.42,5.81h-4.73V84.77h4.76V80.22h-9.91v26.21h10.11c7.26,0,12.55-4,13.13-10.35.05-.63,0-2.53,0-2.53"/></svg>