<svg id="Layer_1" data-name="Layer 1" xmlns="http://www.w3.org/2000/svg" viewBox="0 0 182.89 183.48"><defs><style>.cls-1{fill:#959595;}.cls-2{fill:#00b6e7;}.cls-3{fill:#fff;}</style></defs><path class="cls-1" d="M91.66,174.3A82.54,82.54,0,1,0,9.12,91.76,82.54,82.54,0,0,0,91.66,174.3"/><polygon class="cls-2" points="134.83 80.7 129.62 80.7 129.62 75.57 129.53 75.57 125.66 75.57 125.26 75.57 125.26 80.7 120.05 80.7 120.05 84.8 125.26 84.8 125.26 89.93 129.62 89.93 129.62 84.8 134.83 84.8 134.83 80.7"/><path class="cls-3" d="M67.08,99.36a9.75,9.75,0,0,1-4.24.88A7.59,7.59,0,0,1,55,92.55C55,88,58.34,85,62.88,85a10,10,0,0,1,5.67,1.57l2-3.59a13.25,13.25,0,0,0-7.86-2.19c-7.24,0-12.36,5.16-12.36,11.78s5.12,11.74,12.26,11.74a13.75,13.75,0,0,0,8.74-2.68v-9H67.08Z"/><path class="cls-3" d="M83.94,93.48H80.55V84.75H84c3.06,0,5.14,1.65,5.14,4.47,0,2.58-2,4.26-5.17,4.26m10-4.26c0-5.27-3.83-8.53-9.57-8.53H75.92v23.6h4.63V97.54h4.06l4.6,6.75h5.47L89.27,96.5a7.72,7.72,0,0,0,4.64-7.28"/><rect class="cls-3" x="98.72" y="80.69" width="4.63" height="23.59"/><path class="cls-3" d="M129.59,92.69h0V92h-4.32v.71s0,1.71-.12,2.28c-.44,3.3-3.57,5.22-7.58,5.22h-4.26V84.79h4.29v-4.1h-8.92v23.6h9.1c6.53,0,11.29-3.58,11.81-9.32,0-.57,0-2.28,0-2.28"/></svg>