<svg id="Layer_1" data-name="Layer 1" xmlns="http://www.w3.org/2000/svg" viewBox="0 0 182.89 183.48"><defs><style>.cls-1{fill:#1c1c1b;}.cls-2{fill:#00b6e7;}.cls-3{fill:#fff;}</style></defs><path class="cls-1" d="M92.23,173.5A82.55,82.55,0,1,0,9.69,91,82.54,82.54,0,0,0,92.23,173.5"/><polygon class="cls-2" points="154.73 74.69 147.1 74.69 147.1 67.18 146.97 67.18 141.31 67.18 140.73 67.18 140.73 74.69 133.1 74.69 133.1 80.7 140.73 80.7 140.73 88.2 147.1 88.2 147.1 80.7 154.73 80.7 154.73 74.69"/><path class="cls-3" d="M55.55,102a14.22,14.22,0,0,1-6.21,1.29c-6.35,0-11.5-4.58-11.5-11.27S42.75,81,49.39,81a14.85,14.85,0,0,1,8.31,2.29L60.61,78c-1.24-.81-4.77-3.2-11.51-3.2C38.5,74.8,31,82.34,31,92s7.49,17.19,18,17.19c7,0,11-2.53,12.8-3.91V92.08H55.55Z"/><path class="cls-3" d="M80.23,93.4h-5V80.63h5c4.47,0,7.51,2.41,7.51,6.53,0,3.79-3,6.24-7.56,6.24m14.59-6.24c0-7.71-5.6-12.48-14-12.48H68.49v34.54h6.78V99.35h5.94l6.73,9.87h8L88,97.82a11.27,11.27,0,0,0,6.78-10.66"/><rect class="cls-3" x="101.87" y="74.68" width="6.78" height="34.54"/><path class="cls-3" d="M147.07,92.24h0v-1h-6.33v1s-.06,2.52-.17,3.35c-.65,4.83-5.24,7.64-11.1,7.64h-6.24V80.68h6.28v-6H116.45v34.54h13.32c9.57,0,16.54-5.23,17.3-13.63.07-.84,0-3.35,0-3.35"/></svg>