<svg id="Layer_1" data-name="Layer 1" xmlns="http://www.w3.org/2000/svg" viewBox="0 0 182.89 183.48"><defs><style>.cls-1{fill:#00b6e7;}.cls-2{fill:#fff;}</style></defs><path d="M91.71,173.5A82.55,82.55,0,1,0,9.17,91,82.54,82.54,0,0,0,91.71,173.5"/><polygon class="cls-1" points="134.88 79.89 129.67 79.89 129.67 74.76 129.58 74.76 125.72 74.76 125.32 74.76 125.32 79.89 120.1 79.89 120.1 83.99 125.32 83.99 125.32 89.12 129.67 89.12 129.67 83.99 134.88 83.99 134.88 79.89"/><path class="cls-2" d="M67.14,98.55a9.64,9.64,0,0,1-4.24.88A7.58,7.58,0,0,1,55,91.74c0-4.57,3.36-7.57,7.89-7.57a10.16,10.16,0,0,1,5.68,1.57l2-3.59A13.38,13.38,0,0,0,62.74,80c-7.24,0-12.36,5.15-12.36,11.77s5.12,11.74,12.26,11.74a13.77,13.77,0,0,0,8.74-2.68v-9H67.14Z"/><path class="cls-2" d="M84,92.67H80.6V84H84c3,0,5.13,1.64,5.13,4.46,0,2.58-2,4.26-5.17,4.26m10-4.26c0-5.27-3.83-8.52-9.56-8.52H76v23.59H80.6V96.73h4.07l4.59,6.75h5.47l-5.4-7.79A7.69,7.69,0,0,0,94,88.41"/><rect class="cls-2" x="98.78" y="79.89" width="4.63" height="23.59"/><path class="cls-2" d="M129.65,91.88h0v-.71h-4.32v.71s0,1.72-.12,2.28c-.45,3.3-3.58,5.22-7.58,5.22h-4.26V84h4.28V79.89h-8.91v23.59h9.09c6.54,0,11.3-3.57,11.82-9.32,0-.57,0-2.28,0-2.28"/></svg>