<svg id="Layer_1" data-name="Layer 1" xmlns="http://www.w3.org/2000/svg" viewBox="0 0 182.89 183.48"><defs><style>.cls-1{fill:#959595;}.cls-2{fill:#00b6e7;}.cls-3{fill:#fff;}</style></defs><rect class="cls-1" x="-7.63" y="-4.46" width="195.62" height="193.95"/><polygon class="cls-2" points="159.62 74.44 151.14 74.44 151.14 66.11 151 66.11 144.71 66.11 144.06 66.11 144.06 74.44 135.58 74.44 135.58 81.12 144.06 81.12 144.06 89.46 151.14 89.46 151.14 81.12 159.62 81.12 159.62 74.44"/><path class="cls-3" d="M49.42,104.81a15.87,15.87,0,0,1-6.9,1.43c-7.05,0-12.78-5.09-12.78-12.52S35.2,81.41,42.58,81.41A16.44,16.44,0,0,1,51.81,84L55,78.12c-1.38-.9-5.3-3.55-12.78-3.55-11.78,0-20.11,8.38-20.11,19.15s8.33,19.1,20,19.1c7.8,0,12.2-2.81,14.22-4.35V93.77h-6.9Z"/><path class="cls-3" d="M76.84,95.24H71.33V81.05h5.56c5,0,8.36,2.67,8.36,7.26,0,4.2-3.33,6.93-8.41,6.93m16.21-6.93c0-8.57-6.22-13.87-15.56-13.87H63.79v38.38h7.54v-11h6.6l7.48,11h8.9l-8.79-12.67a12.52,12.52,0,0,0,7.53-11.84"/><rect class="cls-3" x="100.89" y="74.44" width="7.53" height="38.38"/><path class="cls-3" d="M151.11,94h0V92.8h-7V94s-.08,2.79-.2,3.71c-.72,5.37-5.81,8.5-12.32,8.5h-6.94V81.1h7V74.44h-14.5v38.38h14.79c10.63,0,18.38-5.81,19.23-15.16.08-.92,0-3.71,0-3.71"/></svg>