<svg id="Layer_1" data-name="Layer 1" xmlns="http://www.w3.org/2000/svg" viewBox="0 0 182.89 183.48"><defs><style>.cls-1{fill:#1c1c1b;}.cls-2{fill:#00b6e7;}.cls-3{fill:#fff;}</style></defs><rect class="cls-1" x="0.52" width="183.43" height="183.42"/><polygon class="cls-2" points="161.68 73.64 153.2 73.64 153.2 65.3 153.06 65.3 146.76 65.3 146.12 65.3 146.12 73.64 137.64 73.64 137.64 80.31 146.12 80.31 146.12 88.65 153.2 88.65 153.2 80.31 161.68 80.31 161.68 73.64"/><path class="cls-3" d="M51.47,104a15.82,15.82,0,0,1-6.89,1.43c-7.06,0-12.79-5.09-12.79-12.52S37.26,80.6,44.63,80.6a16.38,16.38,0,0,1,9.23,2.55l3.24-5.83c-1.38-.91-5.31-3.56-12.79-3.56-11.77,0-20.1,8.38-20.1,19.15S32.54,112,44.15,112c7.8,0,12.2-2.81,14.22-4.35V93h-6.9Z"/><path class="cls-3" d="M78.89,94.43H73.38V80.24H79c5,0,8.35,2.67,8.35,7.26,0,4.2-3.33,6.93-8.41,6.93M95.11,87.5c0-8.57-6.23-13.87-15.56-13.87H65.85V112h7.53V101H80l7.47,11h8.9L87.57,99.34A12.51,12.51,0,0,0,95.11,87.5"/><rect class="cls-3" x="102.94" y="73.63" width="7.53" height="38.38"/><path class="cls-3" d="M153.16,93.14h0V92h-7v1.15s-.07,2.8-.19,3.72c-.72,5.36-5.82,8.49-12.33,8.49h-6.93V80.29h7V73.63h-14.5V112h14.79c10.63,0,18.38-5.81,19.22-15.15.08-.93,0-3.72,0-3.72"/></svg>