<svg id="Layer_1" data-name="Layer 1" xmlns="http://www.w3.org/2000/svg" viewBox="0 0 989.03 290"><defs><style>.cls-1{fill:#010101;}</style></defs><title> lattice-logo-black</title><polygon class="cls-1" points="590.89 72.05 558.48 72.05 558.48 40.17 557.93 40.17 533.88 40.17 531.4 40.17 531.4 72.05 498.99 72.05 498.99 97.58 531.4 97.58 531.4 129.46 558.48 129.46 558.48 97.58 590.89 97.58 590.89 72.05"/><path class="cls-1" d="M169.59,188.13c-6.7,3.24-15.62,5.47-26.37,5.47-27,0-48.87-19.47-48.87-47.86s20.88-47.05,49.07-47.05c19.68,0,31.64,7.3,35.29,9.73l12.37-22.31c-5.27-3.44-20.28-13.58-48.87-13.58-45,0-76.87,32-76.87,73.21s31.84,73,76.26,73c29.81,0,46.65-10.75,54.35-16.63V145.94H169.59Z"/><path class="cls-1" d="M336.4,125c0-32.76-23.8-53-59.48-53H224.53V218.75h28.8V176.8h25.26l28.59,41.95h34l-33.6-48.42C325.75,161.77,336.4,145.91,336.4,125Zm-62,26.51H253.33V97.29h21.29c19,0,31.93,10.22,31.93,27.75C306.55,141.11,293.82,151.55,274.41,151.55Z"/><rect class="cls-1" x="366.35" y="72.03" width="28.8" height="146.72"/><path class="cls-1" d="M558.33,146.62h0v-4.41H531.47v4.41s-.29,10.68-.76,14.2c-2.75,20.52-22.23,32.47-47.11,32.47H457.09V97.49h26.65V72H428.29V218.75h56.56c40.64,0,70.27-22.21,73.48-57.93C558.65,157.29,558.33,146.62,558.33,146.62Z"/><path d="M671.19,113v5.65H629.91V55.06h5.92V113Z"/><path d="M719.69,89.49v29.16H714v-7.59c-3.52,5.65-11.11,8.7-17.59,8.7-10,0-17.4-6-17.4-15.27,0-9.44,8.24-15.92,19-15.92a53.44,53.44,0,0,1,16,2.87v-2c0-7-3.15-14.71-13.89-14.71-4.81,0-9.81,1.85-14.16,4.25l-2.31-4.72a36.86,36.86,0,0,1,16.94-4.62C713.12,69.69,719.69,77.92,719.69,89.49ZM714,103.66V96a52.63,52.63,0,0,0-15.18-2.4c-8,0-14.16,4.44-14.16,10.64,0,6.39,5.55,10.37,12.68,10.37C704,114.58,712.1,111.06,714,103.66Z"/><path d="M758,116.71a14.77,14.77,0,0,1-8.88,3.05c-6.48,0-11.11-5.09-11.11-12.22V76.07h-7.77V70.8H738V57.65h5.74V70.8h12v5.27h-12v31.47c0,4.08,2.59,6.95,5.74,6.95a8.3,8.3,0,0,0,5.55-2Z"/><path d="M792,116.71a14.78,14.78,0,0,1-8.89,3.05c-6.47,0-11.1-5.09-11.1-12.22V76.07H764.2V70.8H772V57.65h5.74V70.8h12v5.27h-12v31.47c0,4.08,2.59,6.95,5.73,6.95a8.33,8.33,0,0,0,5.56-2Z"/><path d="M800.58,57.47a4,4,0,0,1,8,0,4,4,0,0,1-8,0Zm1.11,13.33h5.73v47.85h-5.73Z"/><path d="M818.81,94.68a24.61,24.61,0,0,1,24.53-25,24,24,0,0,1,16.75,7l-4,3.89A17.59,17.59,0,0,0,843.34,75c-10.37,0-18.52,8.7-18.52,19.72s8.15,19.81,18.52,19.81a17.68,17.68,0,0,0,12.95-5.84l4,3.89a24.05,24.05,0,0,1-16.93,7.22C829.73,119.76,818.81,108.65,818.81,94.68Z"/><path d="M908.22,108.47l3.61,3.89c-4.08,4.44-12.5,7.4-19.53,7.4-12.78,0-24-10.83-24-25.18,0-14.16,10.65-24.89,23.61-24.89,14.16,0,22.67,10.83,22.67,27.3H874.16c1,9.91,8.33,17.5,18.14,17.5C898.31,114.49,904.88,112.08,908.22,108.47Zm-34-16.75h34.62C908.12,82.09,902.2,75,892.11,75,882.76,75,875.45,81.81,874.25,91.72Z"/></svg>