<svg id="Layer_1" data-name="Layer 1" xmlns="http://www.w3.org/2000/svg" viewBox="0 0 1128.69 290"><defs><style>.cls-1{fill:#41b6e6;}.cls-2{fill:#969696;}</style></defs><title> safecard-logo-grey+blue</title><polygon class="cls-1" points="590.89 72.05 558.48 72.05 558.48 40.17 557.93 40.17 533.88 40.17 531.4 40.17 531.4 72.05 498.99 72.05 498.99 97.58 531.4 97.58 531.4 129.46 558.48 129.46 558.48 97.58 590.89 97.58 590.89 72.05"/><path class="cls-2" d="M169.59,188.13c-6.7,3.24-15.62,5.47-26.37,5.47-27,0-48.87-19.47-48.87-47.86s20.88-47.05,49.07-47.05c19.68,0,31.64,7.3,35.29,9.73l12.37-22.31c-5.27-3.44-20.28-13.58-48.87-13.58-45,0-76.87,32-76.87,73.21s31.84,73,76.26,73c29.81,0,46.65-10.75,54.35-16.63V145.94H169.59Z"/><path class="cls-2" d="M336.4,125c0-32.76-23.8-53-59.48-53H224.53V218.75h28.8V176.8h25.26l28.59,41.95h34l-33.6-48.42C325.75,161.77,336.4,145.91,336.4,125Zm-62,26.51H253.33V97.29h21.29c19,0,31.93,10.22,31.93,27.75C306.55,141.11,293.82,151.55,274.41,151.55Z"/><rect class="cls-2" x="366.35" y="72.03" width="28.8" height="146.72"/><path class="cls-2" d="M558.33,146.62h0v-4.41H531.47v4.41s-.29,10.68-.76,14.2c-2.75,20.52-22.23,32.47-47.11,32.47H457.09V97.49h26.65V72H428.29V218.75h56.56c40.64,0,70.27-22.21,73.48-57.93C558.65,157.29,558.33,146.62,558.33,146.62Z"/><path class="cls-2" d="M627.87,109.58l3.7-4.63a30,30,0,0,0,21.57,9.26c10.09,0,15.92-5.56,15.92-12,0-7-5.83-10.09-17.86-12.87C637.78,86.16,630.37,82,630.37,72c0-10.37,8.89-18.14,21-18.14,8.89,0,16.2,3.61,22.22,9.07l-3.71,4.63c-5.27-5.19-11.94-8.24-18.79-8.24-8.6,0-14.71,5.46-14.71,12.22,0,6.38,6,9.16,17.77,12,13.05,3.05,20.92,7.68,20.92,18.05,0,10.18-8.06,18-22.12,18A35.11,35.11,0,0,1,627.87,109.58Z"/><path class="cls-2" d="M725.42,89.49v29.16h-5.73v-7.59c-3.52,5.65-11.11,8.7-17.59,8.7-10,0-17.4-6-17.4-15.27,0-9.44,8.24-15.92,19-15.92a53.5,53.5,0,0,1,16,2.87v-2c0-7-3.15-14.71-13.89-14.71-4.81,0-9.81,1.85-14.16,4.25l-2.31-4.72a36.83,36.83,0,0,1,16.93-4.62C718.85,69.69,725.42,77.92,725.42,89.49Zm-5.73,14.17V96a53,53,0,0,0-15.18-2.4c-8,0-14.17,4.44-14.17,10.64,0,6.39,5.56,10.37,12.69,10.37C709.69,114.58,717.83,111.06,719.69,103.66Z"/><path class="cls-2" d="M749.49,70.8H761.8v5.27H749.49v42.58h-5.74V76.07H736V70.8h7.78V64.22c0-7.12,4.63-12.21,11.1-12.21a14.78,14.78,0,0,1,8.89,3.05l-3,4.26a7.7,7.7,0,0,0-5.56-2c-3.14,0-5.73,2.87-5.73,6.94Z"/><path class="cls-2" d="M809.09,108.47l3.61,3.89c-4.07,4.44-12.49,7.4-19.53,7.4-12.77,0-24-10.83-24-25.17,0-14.17,10.64-24.9,23.6-24.9,14.16,0,22.68,10.83,22.68,27.3H775c1,9.91,8.33,17.5,18.14,17.5C799.19,114.49,805.76,112.08,809.09,108.47Zm-34-16.75h34.62C809,82.09,803.08,75,793,75,783.64,75,776.33,81.81,775.12,91.72Z"/><path class="cls-2" d="M824.27,94.68a24.61,24.61,0,0,1,24.53-25,24,24,0,0,1,16.75,7l-4,3.89A17.59,17.59,0,0,0,848.8,75c-10.37,0-18.51,8.7-18.51,19.72s8.14,19.81,18.51,19.81a17.7,17.7,0,0,0,13-5.84l4,3.89a24.07,24.07,0,0,1-16.94,7.22C835.19,119.76,824.27,108.65,824.27,94.68Z"/><path class="cls-2" d="M914.7,89.49v29.16H909v-7.59c-3.52,5.65-11.11,8.7-17.59,8.7-10,0-17.4-6-17.4-15.27,0-9.44,8.24-15.92,19-15.92a53.45,53.45,0,0,1,16,2.87v-2c0-7-3.15-14.71-13.89-14.71-4.81,0-9.81,1.85-14.16,4.25l-2.31-4.72a36.86,36.86,0,0,1,16.94-4.62C908.12,69.69,914.7,77.92,914.7,89.49ZM909,103.66V96a53,53,0,0,0-15.18-2.4c-8,0-14.16,4.44-14.16,10.64,0,6.39,5.55,10.37,12.68,10.37C899,114.58,907.11,111.06,909,103.66Z"/><path class="cls-2" d="M953.75,69.69V75c-10.83,0-18.51,7-18.51,16.94v26.75H929.5V70.8h5.74v9.81C937.92,74.13,945,69.69,953.75,69.69Z"/><path class="cls-2" d="M1006.79,54v64.7h-5.74V109.3a20,20,0,0,1-17.87,10.46c-12.31,0-21.84-10.74-21.84-25.08s9.53-25,21.84-25a20,20,0,0,1,17.87,10.46V54Zm-5.74,40.73c0-11.57-6.94-19.72-16.85-19.72-9.62,0-16.94,8.43-16.94,19.72s7.32,19.81,16.94,19.81C994.11,114.49,1001.05,106.25,1001.05,94.68Z"/></svg>